HIERARCHY
ROOT Hip
{
	OFFSET 0 1.131 0.0052
	CHANNELS 6 Xposition Yposition Zposition Xrotation Yrotation Zrotation
	JOINT Abdomen
	{
		OFFSET 0 -0.047353 -0.05
		CHANNELS 3 Xrotation Zrotation Yrotation
		JOINT Chest
		{
			OFFSET 0 0.132153 0.007439
			CHANNELS 3 Xrotation Zrotation Yrotation
			JOINT Neck
			{
				OFFSET 0 0.3078 0.006161
				CHANNELS 3 Xrotation Zrotation Yrotation
				JOINT Head_comp
				{
					OFFSET 0 0.0884 0.013
					CHANNELS 3 Xrotation Yrotation Zrotation
					End Site
					{
						OFFSET -0 0.156 0.0624
					}
				}
			}
			JOINT Left_Collar
			{
				OFFSET 0.02282 0.250342 0.017193
				CHANNELS 2 Yrotation Zrotation
				JOINT Left_Shoulder
				{
					OFFSET 0.15421 0 0
					CHANNELS 3 Xrotation Yrotation Zrotation
					JOINT Left_Forearm
					{
						OFFSET 0.265212 0 0
						CHANNELS 2 Yrotation Xrotation
						JOINT Left_Hand
						{
							OFFSET 0.27571 0 0
							CHANNELS 2 Zrotation Yrotation
							JOINT L1ProxPhalanx
							{
								OFFSET 0.014142 0.001733 0.014142
								CHANNELS 3 Yrotation Zrotation Xrotation
								JOINT L1MidPhalanx
								{
									OFFSET 0.04 0 0
									CHANNELS 1 Zrotation
									JOINT L1DistPhalanx
									{
										OFFSET 0.035 0 0
										CHANNELS 1 Zrotation
										End Site
										{
											OFFSET 0.029 -0 -0
										}
									}
								}
							}
							JOINT L2ProxPhalanx
							{
								OFFSET 0.0821037 0.001578 0.0219996
								CHANNELS 2 Yrotation Zrotation
								JOINT L2MidPhalanx
								{
									OFFSET 0.04 0 0
									CHANNELS 1 Zrotation
									JOINT L2DistPhalanx
									{
										OFFSET 0.028 0 0
										CHANNELS 1 Zrotation
										End Site
										{
											OFFSET 0.02 -0 -0
										}
									}
								}
							}
							JOINT L3ProxPhalanx
							{
								OFFSET 0.083 0 0
								CHANNELS 2 Yrotation Zrotation
								JOINT L3MidPhalanx
								{
									OFFSET 0.053 0 0
									CHANNELS 1 Zrotation
									JOINT L3DistPhalanx
									{
										OFFSET 0.03 0 0
										CHANNELS 1 Zrotation
										End Site
										{
											OFFSET 0.023 -0 -0
										}
									}
								}
							}
							JOINT L4ProxPhalanx
							{
								OFFSET 0.077274 -0.000761 -0.0207055
								CHANNELS 2 Yrotation Zrotation
								JOINT L4MidPhalanx
								{
									OFFSET 0.05 0 0
									CHANNELS 1 Zrotation
									JOINT L4DistPhalanx
									{
										OFFSET 0.03 0 0
										CHANNELS 1 Zrotation
										End Site
										{
											OFFSET 0.023 -0 -0
										}
									}
								}
							}
							JOINT L5ProxPhalanx
							{
								OFFSET 0.0675499 -0.001644 -0.039
								CHANNELS 2 Yrotation Zrotation
								JOINT L5MidPhalanx
								{
									OFFSET 0.04 0 0
									CHANNELS 1 Zrotation
									JOINT L5DistPhalanx
									{
										OFFSET 0.021 0 0
										CHANNELS 1 Zrotation
										End Site
										{
											OFFSET 0.022 -0 -0
										}
									}
								}
							}
						}
					}
				}
			}
			JOINT Right_Collar
			{
				OFFSET -0.02282 0.250342 0.017193
				CHANNELS 2 Yrotation Zrotation
				JOINT Right_Shoulder
				{
					OFFSET -0.15421 0 0
					CHANNELS 3 Xrotation Yrotation Zrotation
					JOINT Right_Forearm
					{
						OFFSET -0.265212 0 0
						CHANNELS 2 Yrotation Xrotation
						JOINT Right_Hand
						{
							OFFSET -0.27571 3e-006 0
							CHANNELS 2 Zrotation Yrotation
							JOINT R1ProxPhalanx
							{
								OFFSET -0.014142 0.001733 0.014142
								CHANNELS 3 Yrotation Zrotation Xrotation
								JOINT R1MidPhalanx
								{
									OFFSET -0.04 0 0
									CHANNELS 1 Zrotation
									JOINT R1DistPhalanx
									{
										OFFSET -0.035 0 0
										CHANNELS 1 Zrotation
										End Site
										{
											OFFSET -0.029 -0 -0
										}
									}
								}
							}
							JOINT R2ProxPhalanx
							{
								OFFSET -0.0821037 0.001578 0.0219996
								CHANNELS 2 Yrotation Zrotation
								JOINT R2MidPhalanx
								{
									OFFSET -0.04 0 0
									CHANNELS 1 Zrotation
									JOINT R2DistPhalanx
									{
										OFFSET -0.028 0 0
										CHANNELS 1 Zrotation
										End Site
										{
											OFFSET -0.02 -0 -0
										}
									}
								}
							}
							JOINT R3ProxPhalanx
							{
								OFFSET -0.083 0 0
								CHANNELS 2 Yrotation Zrotation
								JOINT R3MidPhalanx
								{
									OFFSET -0.053 0 0
									CHANNELS 1 Zrotation
									JOINT R3DistPhalanx
									{
										OFFSET -0.03 0 0
										CHANNELS 1 Zrotation
										End Site
										{
											OFFSET -0.023 -0 -0
										}
									}
								}
							}
							JOINT R4ProxPhalanx
							{
								OFFSET -0.077274 -0.000761 -0.0207055
								CHANNELS 2 Yrotation Zrotation
								JOINT R4MidPhalanx
								{
									OFFSET -0.05 0 0
									CHANNELS 1 Zrotation
									JOINT R4DistPhalanx
									{
										OFFSET -0.03 0 0
										CHANNELS 1 Zrotation
										End Site
										{
											OFFSET -0.023 -0 -0
										}
									}
								}
							}
							JOINT R5ProxPhalanx
							{
								OFFSET -0.0675499 -0.001644 -0.039
								CHANNELS 2 Yrotation Zrotation
								JOINT R5MidPhalanx
								{
									OFFSET -0.04 0 0
									CHANNELS 1 Zrotation
									JOINT R5DistPhalanx
									{
										OFFSET -0.021 0 0
										CHANNELS 1 Zrotation
										End Site
										{
											OFFSET -0.022 -0 -0
										}
									}
								}
							}
						}
					}
				}
			}
		}
	}
	JOINT Left_Thigh
	{
		OFFSET 0.1118 -0.1612 -0.0442
		CHANNELS 3 Xrotation Zrotation Yrotation
		JOINT Left_Shin
		{
			OFFSET 0 -0.477856 0
			CHANNELS 1 Xrotation
			JOINT Left_Foot
			{
				OFFSET 0 -0.431952 0
				CHANNELS 2 Xrotation Zrotation
				JOINT Left_Toe
				{
					OFFSET 0 -0.0442 0.119
					CHANNELS 1 Xrotation
					End Site
					{
						OFFSET -0 -0 0.07
					}
				}
			}
		}
	}
	JOINT Right_Thigh
	{
		OFFSET -0.1118 -0.1612 -0.0442
		CHANNELS 3 Xrotation Zrotation Yrotation
		JOINT Right_Shin
		{
			OFFSET 0 -0.477856 0
			CHANNELS 1 Xrotation
			JOINT Right_Foot
			{
				OFFSET 0 -0.431952 0
				CHANNELS 2 Xrotation Zrotation
				JOINT Right_Toe
				{
					OFFSET 0 -0.0442 0.119
					CHANNELS 1 Xrotation
					End Site
					{
						OFFSET -0 -0 0.07
					}
				}
			}
		}
	}
}
MOTION
Frames: 6
Frame Time: 0.009975
-0.100191 -0.0601913 0.0540919 2.4524e-013 8.56009e-008 -5.10902e-006 0 -0 0 0 -0 0 0 -0 0 -0.713447 0.287968 -9.21589e-012 8.27208 -31.015 -2.01884 2.45218 -18.1297 -117.852 -7.17761 3.72125 -16.9043 -40.5316 -43.5896 103.283 -7.10789 -4.81548 2.69559 -7.40342 -2.98992 -6.72733 5.89092 0.508958 -5.4973 -5.3917 11.1257 1.19015 -12.1062 -9.35422 19.4153 3.33565 -41.2194 -1.46018 -4.89652 25.5035 -7.79525 4.60885 20.028 111.561 -5.2869 -10.3082 10.1537 22.5747 52.1345 100.952 13.9884 17.2347 -10.6838 39.5561 10.0473 9.62049 -16.3456 32.6969 19.691 15.0491 -24.44 14.3035 59.5903 -1.6982 -45.7274 -1.56979 109.352 -34.4722 0.93914 -0.731072 -0.0119838 0.0240216 -0.963085 0.731175 0 0.950545 -0.731069 -0.0121293 1.40874e-006 -0.950469 0.731175 0 
-0.100163 -0.0601858 0.0537336 -1.35209e-013 8.39256e-008 -5.10905e-006 0 -0 0 0 -0 0 0 -0 0 -0.713406 0.287896 -1.40639e-012 8.27208 -31.015 -2.01884 2.45218 -18.1297 -117.852 -7.17761 3.72125 -16.9043 -40.5316 -43.5896 103.283 -7.10789 -4.81548 2.69559 -7.40342 -2.98992 -6.72733 5.89092 0.508958 -5.4973 -5.3917 11.1257 1.19015 -12.1062 -9.35422 19.4153 3.33565 -41.2194 -1.46018 -4.49892 25.2741 -8.59165 5.59086 20.3497 110.408 -5.01758 -10.7974 8.3002 21.4551 48.126 81.5182 6.10958 32.1614 -11.4896 41.0518 9.47821 9.78807 -17.6268 33.6401 19.7816 15.3997 -26.4407 14.6278 61.4987 -1.7944 -46.871 -1.60731 110.014 -36.6568 0.91657 -0.732867 -0.0117245 0.0240216 -0.940516 0.732966 0 0.927975 -0.732865 -0.0118704 1.42998e-006 -0.9279 0.732966 0 
-0.10014 -0.0601794 0.053314 2.42774e-013 8.15606e-008 -5.10909e-006 0 -0 0 0 -0 0 0 -0 0 -0.71336 0.287825 -1.32121e-011 8.27208 -31.015 -2.01884 2.45218 -18.1297 -117.852 -7.17761 3.72125 -16.9043 -40.5316 -43.5896 103.283 -7.10789 -4.81548 2.69559 -7.40342 -2.98992 -6.72733 5.89092 0.508958 -5.4973 -5.3917 11.1257 1.19015 -12.1062 -9.35422 19.4153 3.33565 -41.2194 -1.46018 -3.9298 25.0402 -9.46122 6.556 20.6986 109.105 -4.75421 -11.0662 6.45466 25.4334 48.9669 87.8902 8.61246 35.466 -11.7551 42.3014 9.45962 10.0732 -17.9547 35.2218 20.1109 15.6742 -27.1868 16.7062 62.3445 -1.78383 -48.3994 -1.45931 111.173 -37.487 0.89014 -0.734338 -0.0114092 0.0240216 -0.914089 0.734432 0 0.901546 -0.734336 -0.0115554 0 -0.901472 0.734432 0 
-0.100114 -0.0601732 0.0528923 -9.03474e-013 7.92004e-008 -5.10913e-006 0 -0 0 0 -0 0 0 -0 0 -0.713313 0.287734 -5.11844e-012 8.27208 -31.015 -2.01884 2.45218 -18.1297 -117.852 -7.17761 3.72125 -16.9043 -40.5316 -43.5896 103.283 -7.10789 -4.81548 2.69559 -7.40342 -2.98992 -6.72733 5.89092 0.508958 -5.4973 -5.3917 11.1257 1.19015 -12.1062 -9.35422 19.4153 3.33565 -41.2194 -1.46018 -3.41996 24.7738 -10.288 7.65405 21.0731 107.561 -4.40357 -11.0932 4.69393 31.2148 49.2645 111.053 10.076 28.6286 -11.9331 44.3739 9.25681 10.0083 -18.2408 37.6147 20.4124 15.5153 -28.2175 19.1185 63.7637 -2.65438 -50.5407 -1.25355 111.889 -37.4235 0.86358 -0.735944 -0.0110929 0.0240216 -0.887531 0.736033 0 0.874986 -0.735942 -0.0112394 1.18327e-006 -0.874915 0.736033 0 
-0.100095 -0.0601669 0.0524558 -6.34277e-013 7.68115e-008 -5.10917e-006 0 -0 0 0 -0 0 0 -0 0 -0.713266 0.287677 -6.7305e-012 8.27208 -31.015 -2.01884 2.45218 -18.1297 -117.852 -7.17761 3.72125 -16.9043 -40.5316 -43.5896 103.283 -7.10789 -4.81548 2.69559 -7.40342 -2.98992 -6.72733 5.89092 0.508958 -5.4973 -5.3917 11.1257 1.19015 -12.1062 -9.35422 19.4153 3.33565 -41.2194 -1.46018 -2.94377 24.5427 -11.2186 8.85825 21.4371 105.775 -4.05228 -11.0712 2.93454 29.0745 52.405 148.859 13.1103 12.9693 -11.9626 46.4903 9.1129 9.72717 -18.3963 39.201 20.8567 15.4611 -29.3341 19.7361 66.0956 -4.1509 -52.2092 -1.17747 113.474 -39.8807 0.836081 -0.737172 -0.0107576 0.0240216 -0.860033 0.737255 0 0.847485 -0.737169 -0.0109043 2.41484e-006 -0.847418 0.737255 0 
-0.100082 -0.0601602 0.0519866 2.84085e-014 7.42806e-008 -5.10921e-006 0 -0 0 0 -0 0 0 -0 0 -0.713214 0.287641 -9.88992e-013 8.27208 -31.015 -2.01884 2.45218 -18.1297 -117.852 -7.17761 3.72125 -16.9043 -40.5316 -43.5896 103.283 -7.10789 -4.81548 2.69559 -7.40342 -2.98992 -6.72733 5.89092 0.508958 -5.4973 -5.3917 11.1257 1.19015 -12.1062 -9.35422 19.4153 3.33565 -41.2194 -1.46018 -2.41796 24.3565 -12.2104 10.068 21.8106 103.744 -3.68958 -10.935 1.28163 27.1019 52.4334 150.914 14.0877 12.1849 -11.9596 46.0548 9.11049 9.4092 -18.4156 38.7306 20.6774 15.6141 -29.3065 19.6838 66.2262 -4.89666 -52.2841 -1.17369 113.994 -40.5256 0.806529 -0.737989 -0.0103888 0.0240216 -0.830484 0.738068 0 0.817934 -0.737987 -0.0105357 2.28646e-006 -0.817869 0.738068 0 
